<svg width="18" height="13" viewBox="0 0 18 13" fill="none" xmlns="http://www.w3.org/2000/svg">
<rect y="2.88889" width="18" height="7.22222" fill="black"/>
<path d="M10.646 5.22671C10.589 5.2036 10.486 5.19205 10.333 5.19205V7.75016C10.534 7.75016 10.657 7.72055 10.704 7.66205C10.751 7.60355 10.774 7.44466 10.774 7.18538V5.67449C10.774 5.49827 10.766 5.3856 10.751 5.33577C10.7453 5.31324 10.7329 5.29187 10.7148 5.27306C10.6967 5.25425 10.6732 5.23845 10.646 5.22671ZM14.145 6.08038C14.063 6.08038 14.008 6.10277 13.983 6.1461C13.958 6.19016 13.946 6.30066 13.946 6.47833V7.50821C13.946 7.67938 13.96 7.78916 13.987 7.83755C14.016 7.88521 14.073 7.90977 14.155 7.90977C14.241 7.90977 14.354 7.88449 14.38 7.83538C14.407 7.78555 14.419 7.66638 14.419 7.47788V6.47833C14.419 6.31366 14.405 6.20605 14.376 6.15549C14.344 6.10566 14.229 6.08038 14.145 6.08038Z" fill="#FCDE27"/>
<path d="M17 0H1C0.734784 0 0.48043 0.076091 0.292893 0.211534C0.105357 0.346977 0 0.530677 0 0.722222V12.2778C0 12.4693 0.105357 12.653 0.292893 12.7885C0.48043 12.9239 0.734784 13 1 13H17C17.2652 13 17.5196 12.9239 17.7071 12.7885C17.8946 12.653 18 12.4693 18 12.2778V0.722222C18 0.530677 17.8946 0.346977 17.7071 0.211534C17.5196 0.076091 17.2652 0 17 0ZM3.631 8.42328H2.229V4.52544H3.631V8.42328ZM8.453 8.42328H7.23L7.224 5.79222L6.734 8.42328H5.859L5.342 5.85L5.338 8.42328H4.111V4.52544H5.93C5.981 4.76161 6.037 5.03822 6.096 5.356L6.297 6.34617L6.621 4.52544H8.453V8.42328ZM12.117 7.267C12.117 7.61656 12.09 7.85055 12.045 7.96756C12.0082 8.07563 11.9249 8.17248 11.807 8.24417C11.6835 8.31398 11.5389 8.36174 11.385 8.38356C11.219 8.41028 10.967 8.42328 10.631 8.42328H8.932V4.52544H9.979C10.657 4.52544 11.049 4.54783 11.288 4.59261C11.528 4.63739 11.71 4.71106 11.833 4.81361C11.958 4.91617 12.036 5.03028 12.067 5.15667C12.098 5.28233 12.118 5.52933 12.118 5.89767V7.267H12.117ZM15.771 7.52844C15.771 7.76244 15.748 7.9365 15.705 8.05061C15.6535 8.1731 15.5442 8.27865 15.396 8.34889C15.2291 8.43429 15.0285 8.47838 14.824 8.47456C14.666 8.47456 14.459 8.44928 14.322 8.39944C14.1753 8.34485 14.0467 8.26798 13.945 8.17411L13.857 8.42255H12.595V4.52544H13.945V5.79294C14.0473 5.70437 14.1753 5.63311 14.32 5.58422C14.457 5.538 14.664 5.51489 14.824 5.51489C15.01 5.51489 15.172 5.53583 15.308 5.57772C15.4224 5.61087 15.523 5.66479 15.6001 5.73425C15.6772 5.80371 15.7281 5.88637 15.748 5.97422C15.764 6.04644 15.771 6.20028 15.771 6.435V7.52844Z" fill="#FCDE27"/>
</svg>
