<svg width="97" height="35" viewBox="0 0 97 35" fill="none" xmlns="http://www.w3.org/2000/svg">
<path d="M17.5 31.5H31.5V35H17.5C7.83475 35 0 27.1652 0 17.5C0 7.83475 7.83475 0 17.5 0C27.1652 0 35 7.83475 35 17.5C35.0056 21.2874 33.7769 24.9734 31.5 28H26.761C29.2184 25.8327 30.8379 22.8722 31.3373 19.6338C31.8367 16.3955 31.1844 13.0846 29.4941 10.2777C27.8038 7.47074 25.1824 5.3456 22.0866 4.27234C18.9908 3.19908 15.6165 3.24569 12.5515 4.40405C9.48651 5.5624 6.92488 7.75913 5.31271 10.6117C3.70055 13.4642 3.13999 16.7919 3.72866 20.0152C4.31732 23.2385 6.0179 26.1532 8.53428 28.2518C11.0507 30.3503 14.2234 31.4998 17.5 31.5ZM17.5 14C16.5717 14 15.6815 13.6313 15.0251 12.9749C14.3687 12.3185 14 11.4283 14 10.5C14 9.57174 14.3687 8.6815 15.0251 8.02513C15.6815 7.36875 16.5717 7 17.5 7C18.4282 7 19.3185 7.36875 19.9749 8.02513C20.6312 8.6815 21 9.57174 21 10.5C21 11.4283 20.6312 12.3185 19.9749 12.9749C19.3185 13.6313 18.4282 14 17.5 14ZM10.5 21C9.57174 21 8.6815 20.6313 8.02512 19.9749C7.36874 19.3185 7 18.4283 7 17.5C7 16.5717 7.36874 15.6815 8.02512 15.0251C8.6815 14.3687 9.57174 14 10.5 14C11.4283 14 12.3185 14.3687 12.9749 15.0251C13.6312 15.6815 14 16.5717 14 17.5C14 18.4283 13.6312 19.3185 12.9749 19.9749C12.3185 20.6313 11.4283 21 10.5 21ZM24.5 21C23.5717 21 22.6815 20.6313 22.0251 19.9749C21.3687 19.3185 21 18.4283 21 17.5C21 16.5717 21.3687 15.6815 22.0251 15.0251C22.6815 14.3687 23.5717 14 24.5 14C25.4282 14 26.3185 14.3687 26.9749 15.0251C27.6312 15.6815 28 16.5717 28 17.5C28 18.4283 27.6312 19.3185 26.9749 19.9749C26.3185 20.6313 25.4282 21 24.5 21ZM17.5 28C16.5717 28 15.6815 27.6313 15.0251 26.9749C14.3687 26.3185 14 25.4283 14 24.5C14 23.5717 14.3687 22.6815 15.0251 22.0251C15.6815 21.3687 16.5717 21 17.5 21C18.4282 21 19.3185 21.3687 19.9749 22.0251C20.6312 22.6815 21 23.5717 21 24.5C21 25.4283 20.6312 26.3185 19.9749 26.9749C19.3185 27.6313 18.4282 28 17.5 28Z" fill="#BA00FC"/>
<path d="M50.7102 11.3636V23H48.8352L43.3523 15.0739H43.2557V23H41.1477V11.3636H43.0341L48.5114 19.2955H48.6136V11.3636H50.7102ZM56.7798 23.1705C55.9048 23.1705 55.1491 22.9886 54.5128 22.625C53.8802 22.2576 53.3935 21.7386 53.0526 21.0682C52.7116 20.3939 52.5412 19.6004 52.5412 18.6875C52.5412 17.7898 52.7116 17.0019 53.0526 16.3239C53.3973 15.642 53.8783 15.1117 54.4957 14.733C55.1132 14.3504 55.8385 14.1591 56.6719 14.1591C57.2098 14.1591 57.7173 14.2462 58.1946 14.4205C58.6757 14.5909 59.0999 14.8561 59.4673 15.2159C59.8385 15.5758 60.1302 16.0341 60.3423 16.5909C60.5545 17.1439 60.6605 17.803 60.6605 18.5682V19.1989H53.5071V17.8125H58.6889C58.6851 17.4186 58.5999 17.0682 58.4332 16.7614C58.2666 16.4508 58.0336 16.2064 57.7344 16.0284C57.4389 15.8504 57.0942 15.7614 56.7003 15.7614C56.2798 15.7614 55.9105 15.8636 55.5923 16.0682C55.2741 16.2689 55.026 16.5341 54.848 16.8636C54.6738 17.1894 54.5848 17.5473 54.581 17.9375V19.1477C54.581 19.6553 54.6738 20.0909 54.8594 20.4545C55.045 20.8144 55.3045 21.0909 55.6378 21.2841C55.9711 21.4735 56.3613 21.5682 56.8082 21.5682C57.1075 21.5682 57.3783 21.5265 57.6207 21.4432C57.8632 21.3561 58.0734 21.2292 58.2514 21.0625C58.4295 20.8958 58.5639 20.6894 58.6548 20.4432L60.5753 20.6591C60.4541 21.1667 60.223 21.6098 59.8821 21.9886C59.545 22.3636 59.1132 22.6553 58.5866 22.8636C58.0601 23.0682 57.4579 23.1705 56.7798 23.1705ZM66.7585 14.2727V15.8636H61.7415V14.2727H66.7585ZM62.9801 12.1818H65.0369V20.375C65.0369 20.6515 65.0786 20.8636 65.1619 21.0114C65.2491 21.1553 65.3627 21.2538 65.5028 21.3068C65.643 21.3598 65.7983 21.3864 65.9688 21.3864C66.0975 21.3864 66.215 21.3769 66.321 21.358C66.4309 21.339 66.5142 21.322 66.571 21.3068L66.9176 22.9148C66.8078 22.9527 66.6506 22.9943 66.446 23.0398C66.2453 23.0852 65.9991 23.1117 65.7074 23.1193C65.1922 23.1345 64.7282 23.0568 64.3153 22.8864C63.9025 22.7121 63.5748 22.4432 63.3324 22.0795C63.0938 21.7159 62.9763 21.2614 62.9801 20.7159V12.1818ZM72.8991 14.2727V15.8636H67.7401V14.2727H72.8991ZM69.0298 23V13.4489C69.0298 12.8617 69.151 12.3731 69.3935 11.983C69.6397 11.5928 69.9692 11.3011 70.3821 11.108C70.795 10.9148 71.2533 10.8182 71.7571 10.8182C72.1132 10.8182 72.4295 10.8466 72.706 10.9034C72.9825 10.9602 73.187 11.0114 73.3196 11.0568L72.9105 12.6477C72.8234 12.6212 72.7135 12.5947 72.581 12.5682C72.4484 12.5379 72.3007 12.5227 72.1378 12.5227C71.7552 12.5227 71.4844 12.6155 71.3253 12.8011C71.17 12.983 71.0923 13.2443 71.0923 13.5852V23H69.0298ZM76.5668 11.3636V23H74.5099V11.3636H76.5668ZM84.2443 19.3295V14.2727H86.3011V23H84.3068V21.4489H84.2159C84.0189 21.9375 83.6951 22.3371 83.2443 22.6477C82.7973 22.9583 82.2462 23.1136 81.5909 23.1136C81.0189 23.1136 80.5133 22.9867 80.0739 22.733C79.6383 22.4754 79.2973 22.1023 79.0511 21.6136C78.8049 21.1212 78.6818 20.5265 78.6818 19.8295V14.2727H80.7386V19.5114C80.7386 20.0644 80.8902 20.5038 81.1932 20.8295C81.4962 21.1553 81.8939 21.3182 82.3864 21.3182C82.6894 21.3182 82.983 21.2443 83.267 21.0966C83.5511 20.9489 83.7841 20.7292 83.9659 20.4375C84.1515 20.142 84.2443 19.7727 84.2443 19.3295ZM90.098 14.2727L91.8594 17.4943L93.6491 14.2727H95.8253L93.1946 18.6364L95.8707 23H93.706L91.8594 19.858L90.0298 23H87.848L90.5071 18.6364L87.9162 14.2727H90.098Z" fill="white"/>
</svg>
