<svg width="35" height="35" viewBox="0 0 35 35" fill="none" xmlns="http://www.w3.org/2000/svg">
<circle cx="17.5" cy="17.5" r="17.5" fill="white"/>
<circle cx="17.5" cy="17.5" r="17" stroke="black" stroke-opacity="0.68"/>
<path d="M29.3198 29.8265C27.5707 26.7307 24.8753 24.5108 21.7298 23.4585C23.2857 22.5102 24.4946 21.0652 25.1707 19.3454C25.8469 17.6256 25.9529 15.7261 25.4726 13.9386C24.9923 12.1511 23.9521 10.5745 22.5118 9.45084C21.0716 8.32718 19.3109 7.71863 17.5001 7.71863C15.6893 7.71863 13.9286 8.32718 12.4883 9.45084C11.0481 10.5745 10.0079 12.1511 9.52755 13.9386C9.04721 15.7261 9.15326 17.6256 9.82942 19.3454C10.5056 21.0652 11.7144 22.5102 13.2704 23.4585C10.1248 24.5096 7.42943 26.7295 5.68036 29.8265C5.61622 29.9336 5.57367 30.0527 5.55523 30.1769C5.5368 30.3011 5.54284 30.4278 5.57301 30.5496C5.60317 30.6713 5.65685 30.7856 5.73088 30.8858C5.8049 30.986 5.89778 31.07 6.00402 31.1328C6.11025 31.1956 6.22771 31.236 6.34945 31.2516C6.47118 31.2672 6.59474 31.2577 6.71283 31.2236C6.83091 31.1895 6.94114 31.1316 7.03699 31.0532C7.13285 30.9748 7.2124 30.8775 7.27094 30.7671C9.4346 26.9388 13.2589 24.6531 17.5001 24.6531C21.7413 24.6531 25.5656 26.9388 27.7292 30.7671C27.7878 30.8775 27.8673 30.9748 27.9632 31.0532C28.059 31.1316 28.1692 31.1895 28.2873 31.2236C28.4054 31.2577 28.529 31.2672 28.6507 31.2516C28.7724 31.236 28.8899 31.1956 28.9961 31.1328C29.1024 31.07 29.1952 30.986 29.2693 30.8858C29.3433 30.7856 29.397 30.6713 29.4271 30.5496C29.4573 30.4278 29.4634 30.3011 29.4449 30.1769C29.4265 30.0527 29.3839 29.9336 29.3198 29.8265ZM11.0688 16.1875C11.0688 14.8852 11.446 13.6122 12.1527 12.5294C12.8594 11.4466 13.8638 10.6026 15.0389 10.1043C16.2141 9.60593 17.5072 9.47553 18.7548 9.72959C20.0023 9.98365 21.1482 10.6108 22.0477 11.5316C22.9471 12.4524 23.5596 13.6257 23.8078 14.9029C24.0559 16.1801 23.9285 17.504 23.4418 18.7072C22.955 19.9103 22.1307 20.9387 21.0731 21.6622C20.0155 22.3857 18.7721 22.7718 17.5001 22.7718C15.795 22.77 14.1602 22.0757 12.9545 20.8412C11.7488 19.6068 11.0707 17.9332 11.0688 16.1875Z" fill="black" fill-opacity="0.68"/>
</svg>
