<svg width="20" height="16" viewBox="0 0 20 16" fill="none" xmlns="http://www.w3.org/2000/svg">
<path d="M19.9425 7.676C19.9133 7.597 19.2075 5.718 17.6383 3.835C15.5475 1.326 12.9067 0 10 0C7.09333 0 4.4525 1.326 2.36166 3.835C0.792493 5.718 0.0833254 7.6 0.0574921 7.676C0.0195863 7.77831 0 7.88903 0 8.001C0 8.11297 0.0195863 8.22369 0.0574921 8.326C0.0866587 8.405 0.792493 10.283 2.36166 12.166C4.4525 14.674 7.09333 16 10 16C12.9067 16 15.5475 14.674 17.6383 12.166C19.2075 10.283 19.9133 8.405 19.9425 8.326C19.9804 8.22369 20 8.11297 20 8.001C20 7.88903 19.9804 7.77831 19.9425 7.676ZM10 14.4C7.435 14.4 5.19416 13.281 3.33916 11.075C2.57803 10.1667 1.93048 9.13095 1.41666 8C1.93034 6.86894 2.57791 5.83318 3.33916 4.925C5.19416 2.719 7.435 1.6 10 1.6C12.565 1.6 14.8058 2.719 16.6608 4.925C17.4234 5.83296 18.0724 6.86872 18.5875 8C17.9867 9.346 15.3692 14.4 10 14.4ZM10 3.2C9.20887 3.2 8.43551 3.48152 7.77772 4.00895C7.11992 4.53638 6.60723 5.28603 6.30448 6.16312C6.00173 7.0402 5.92251 8.00532 6.07686 8.93643C6.2312 9.86754 6.61216 10.7228 7.17157 11.3941C7.73098 12.0654 8.44371 12.5226 9.21964 12.7078C9.99556 12.893 10.7998 12.7979 11.5307 12.4346C12.2616 12.0713 12.8864 11.4561 13.3259 10.6667C13.7654 9.87738 14 8.94935 14 8C13.9989 6.72737 13.5771 5.50724 12.8272 4.60735C12.0773 3.70746 11.0605 3.20132 10 3.2ZM10 11.2C9.47258 11.2 8.95701 11.0123 8.51848 10.6607C8.07995 10.3091 7.73815 9.80931 7.53632 9.22459C7.33449 8.63986 7.28168 7.99645 7.38457 7.37571C7.48746 6.75497 7.74144 6.18479 8.11438 5.73726C8.48732 5.28973 8.96248 4.98496 9.47976 4.86149C9.99704 4.73801 10.5332 4.80138 11.0205 5.04359C11.5078 5.28579 11.9242 5.69594 12.2173 6.22218C12.5103 6.74841 12.6667 7.3671 12.6667 8C12.6667 8.84869 12.3857 9.66262 11.8856 10.2627C11.3855 10.8629 10.7072 11.2 10 11.2Z" fill="white"/>
</svg>
